<?xml version="1.0" encoding="UTF-8" standalone="no"?>
<svg width="297px" height="89px" viewBox="0 0 297 89" version="1.1" xmlns="http://www.w3.org/2000/svg" xmlns:xlink="http://www.w3.org/1999/xlink">
    <!-- Generator: Sketch 39.1 (31720) - http://www.bohemiancoding.com/sketch -->
    <title>js_student</title>
    <desc>Created with Sketch.</desc>
    <defs>
        <linearGradient x1="-0.202666667%" y1="50.4171209%" x2="99.7804444%" y2="50.4171209%" id="linearGradient-1">
            <stop stop-color="#008485" offset="20%"></stop>
            <stop stop-color="#ED622C" offset="50.74%"></stop>
            <stop stop-color="#008485" offset="80%"></stop>
        </linearGradient>
        <linearGradient x1="-142.61%" y1="1.89%" x2="4360.04%" y2="1.89%" id="linearGradient-2">
            <stop stop-color="#008485" offset="20%"></stop>
            <stop stop-color="#ED622C" offset="50.74%"></stop>
            <stop stop-color="#008485" offset="80%"></stop>
        </linearGradient>
        <linearGradient x1="-175.1%" y1="3.32%" x2="4327.14%" y2="3.32%" id="linearGradient-3">
            <stop stop-color="#008485" offset="20%"></stop>
            <stop stop-color="#ED622C" offset="50.74%"></stop>
            <stop stop-color="#008485" offset="80%"></stop>
        </linearGradient>
        <linearGradient x1="-92.6%" y1="1.87%" x2="4409.77%" y2="1.87%" id="linearGradient-4">
            <stop stop-color="#008485" offset="20%"></stop>
            <stop stop-color="#ED622C" offset="50.74%"></stop>
            <stop stop-color="#008485" offset="80%"></stop>
        </linearGradient>
        <linearGradient x1="-702.62%" y1="13.95%" x2="3800.18%" y2="13.95%" id="linearGradient-5">
            <stop stop-color="#008485" offset="20%"></stop>
            <stop stop-color="#ED622C" offset="50.74%"></stop>
            <stop stop-color="#008485" offset="80%"></stop>
        </linearGradient>
        <linearGradient x1="0.03775%" y1="51.084611%" x2="99.89975%" y2="51.084611%" id="linearGradient-6">
            <stop stop-color="#008485" offset="20%"></stop>
            <stop stop-color="#ED622C" offset="50.74%"></stop>
            <stop stop-color="#008485" offset="80%"></stop>
        </linearGradient>
        <linearGradient x1="0.0553254438%" y1="50.0782148%" x2="99.9508876%" y2="50.0782148%" id="linearGradient-7">
            <stop stop-color="#008485" offset="20%"></stop>
            <stop stop-color="#ED622C" offset="50.74%"></stop>
            <stop stop-color="#008485" offset="80%"></stop>
        </linearGradient>
        <linearGradient x1="-0.168683274%" y1="49.0169454%" x2="99.8914591%" y2="49.0169454%" id="linearGradient-8">
            <stop stop-color="#008485" offset="20%"></stop>
            <stop stop-color="#ED622C" offset="50.74%"></stop>
            <stop stop-color="#008485" offset="80%"></stop>
        </linearGradient>
        <linearGradient x1="0.282995951%" y1="49.9910524%" x2="100%" y2="49.9910524%" id="linearGradient-9">
            <stop stop-color="#2EA1A2" offset="0%"></stop>
            <stop stop-color="#005A5B" offset="100%"></stop>
        </linearGradient>
        <linearGradient x1="0.0368181818%" y1="49.8340599%" x2="99.9327273%" y2="49.8340599%" id="linearGradient-10">
            <stop stop-color="#2EA1A2" offset="0%"></stop>
            <stop stop-color="#005A5B" offset="100%"></stop>
        </linearGradient>
        <linearGradient x1="-3911.55455%" y1="15.63%" x2="181.918182%" y2="15.63%" id="linearGradient-11">
            <stop stop-color="#008485" offset="20%"></stop>
            <stop stop-color="#ED622C" offset="50.74%"></stop>
            <stop stop-color="#008485" offset="80%"></stop>
        </linearGradient>
        <linearGradient x1="-1853.85455%" y1="15.63%" x2="144.109091%" y2="15.63%" id="linearGradient-12">
            <stop stop-color="#2EA1A2" offset="0%"></stop>
            <stop stop-color="#005A5B" offset="100%"></stop>
        </linearGradient>
        <linearGradient x1="0.416145833%" y1="49.9129518%" x2="100.264583%" y2="49.9129518%" id="linearGradient-13">
            <stop stop-color="#2EA1A2" offset="0%"></stop>
            <stop stop-color="#005A5B" offset="100%"></stop>
        </linearGradient>
        <linearGradient x1="0.487195122%" y1="50.0485816%" x2="100.22561%" y2="50.0485816%" id="linearGradient-14">
            <stop stop-color="#2EA1A2" offset="0%"></stop>
            <stop stop-color="#005A5B" offset="100%"></stop>
        </linearGradient>
    </defs>
    <g id="Symbols" stroke="none" stroke-width="1" fill="none" fill-rule="evenodd">
        <g id="Artboard" transform="translate(-448.000000, -140.000000)">
            <g id="js_student" transform="translate(448.000000, 139.000000)">
                <g id="webcamp" transform="translate(110.000000, 14.000000)">
                    <polygon id="Shape" fill="#EC674B" points="19.8936696 9.43105882 11.8625551 30.6978824 0.440726872 1.08211765 2.5463304 1.08211765 11.8625551 25.2041176 19.8936696 3.97270588 27.8539383 25.2041176 37.2410088 1.08211765 39.3466123 1.08211765 27.8539383 30.6978824"></polygon>
                    <path d="M53.1928502,28.3425882 C51.6581322,29.8051765 49.6241982,30.6970588 47.1610705,30.6970588 C41.6639295,30.6970588 37.2022907,26.2368235 37.2022907,20.7422353 C37.2022907,15.246 41.6639295,10.7149412 47.1610705,10.7149412 C52.6573877,10.7149412 56.1560176,15.246 56.1560176,20.7422353 C56.1560176,21.0625882 56.1560176,21.4191765 56.1197709,21.7411765 L39.2370485,21.7411765 C39.7362643,25.6661176 43.0915551,28.7345882 47.1610705,28.7345882 C48.9808194,28.7345882 50.587207,28.1284706 51.8014714,26.9862353 L53.1928502,28.3425882 L53.1928502,28.3425882 Z M54.1566828,19.7795294 C53.9779207,17.9232941 53.3361894,16.2103529 52.2644405,14.9972941 C50.9793304,13.4984706 49.2304273,12.6782353 47.1610705,12.6782353 C43.0915551,12.6782353 39.7008414,15.8175294 39.2370485,19.7795294 L54.1566828,19.7795294 L54.1566828,19.7795294 Z" id="Shape" fill="#EC674B"></path>
                    <path d="M61.078978,13.6409412 C62.7207885,11.7501176 65.0768238,10.5724706 67.9320749,10.5724706 C73.4992379,10.5724706 78.03337,15.0672941 78.03337,20.6343529 C78.03337,26.2014118 73.4992379,30.6970588 67.9320749,30.6970588 C65.076,30.6970588 62.7207885,29.5194118 61.078978,27.5923529 L61.078978,29.6264706 L59.1150661,29.6264706 L59.1150661,1.08129412 L61.078978,1.08129412 L61.078978,13.6409412 L61.078978,13.6409412 Z M61.078978,23.5603529 C61.4365022,24.6671765 61.971141,25.6307059 62.6853656,26.4155294 C64.0058987,27.9143529 65.8256476,28.7345882 67.9320749,28.7345882 C72.4291366,28.7345882 76.0332115,25.0945882 76.0332115,20.6343529 C76.0332115,16.1387059 72.4291366,12.5341176 67.9320749,12.5341176 C65.8256476,12.5341176 64.0050749,13.3189412 62.6853656,14.8177647 C61.971141,15.6025882 61.4356784,16.6015294 61.078978,17.6729412 L61.078978,23.5603529 L61.078978,23.5603529 Z" id="Shape" fill="#EC674B"></path>
                    <path d="M108.61652,26.2005882 C105.831291,28.9841176 101.97596,30.6970588 97.7639295,30.6970588 C89.2698458,30.6970588 82.4175727,23.8098824 82.4175727,15.3538824 C82.4175727,6.89623529 89.2698458,0.00988235294 97.7639295,0.00988235294 C101.97596,0.00988235294 105.831291,1.72282353 108.61652,4.50552941 L107.223493,5.89647059 C104.797436,3.47035294 101.440498,1.97152941 97.7647533,1.97152941 C90.3778414,1.97152941 84.379837,7.966 84.379837,15.3530588 C84.379837,22.7392941 90.3778414,28.7337647 97.7647533,28.7337647 C101.441322,28.7337647 104.797436,27.2349412 107.223493,24.808 L108.61652,26.2005882 L108.61652,26.2005882 Z" id="Shape" fill="#04ADAC"></path>
                    <path d="M127.209427,27.6285882 C125.602216,29.5202353 123.246181,30.6978824 120.39093,30.6978824 C114.859189,30.6978824 110.397551,26.2376471 110.397551,20.706 C110.397551,15.176 114.859189,10.7157647 120.39093,10.7157647 C123.247004,10.7157647 125.602216,11.8934118 127.209427,13.7842353 L127.209427,11.7863529 L129.172515,11.7863529 L129.172515,29.6272941 L127.209427,29.6272941 L127.209427,27.6285882 L127.209427,27.6285882 Z M127.209427,17.78 C126.887326,16.7102353 126.316441,15.7458824 125.602216,14.9248235 C124.280859,13.4276471 122.496533,12.6774118 120.39093,12.6774118 C115.966361,12.6774118 112.360639,16.2449412 112.360639,20.7051765 C112.360639,25.13 115.966361,28.7345882 120.39093,28.7345882 C122.497357,28.7345882 124.281683,27.9489412 125.602216,26.4509412 C126.316441,25.6661176 126.88815,24.7025882 127.209427,23.632 L127.209427,17.78 L127.209427,17.78 Z" id="Shape" fill="#04ADAC"></path>
                    <path d="M135.595595,13.4984706 C137.09489,11.7855294 139.272163,10.7157647 141.69822,10.7157647 C144.76848,10.7157647 147.445793,12.4287059 148.801749,14.9256471 C150.157705,12.4287059 152.835018,10.7157647 155.90363,10.7157647 C160.366916,10.7157647 163.970991,14.3549412 163.970991,18.7797647 L163.970991,29.6272941 L162.007903,29.6272941 L162.007903,18.7789412 C162.007903,15.4255294 159.259744,12.6782353 155.90363,12.6782353 C152.51374,12.6782353 149.801004,15.4255294 149.801004,18.7789412 L149.801004,29.6264706 L147.802493,29.6264706 L147.802493,18.7789412 C147.802493,15.4255294 145.089758,12.6782353 141.69822,12.6782353 C138.343753,12.6782353 135.595595,15.4255294 135.595595,18.7789412 L135.595595,29.6264706 L133.632507,29.6264706 L133.632507,11.7855294 L135.595595,11.7855294 L135.595595,13.4984706 L135.595595,13.4984706 Z" id="Shape" fill="#04ADAC"></path>
                    <path d="M169.42859,13.8550588 C171.071225,11.928 173.497282,10.7149412 176.38878,10.7149412 C181.955943,10.7149412 186.311313,15.1043529 186.311313,20.6697647 C186.311313,26.2368235 181.814251,30.6970588 176.280863,30.6970588 C173.426436,30.6970588 171.034154,29.4469412 169.42859,27.5577647 L169.42859,41.4021176 L167.430079,41.4021176 L167.430079,11.7855294 L169.42859,11.7855294 L169.42859,13.8550588 L169.42859,13.8550588 Z M169.42859,23.5249412 C169.750692,24.6309412 170.286154,25.5944706 171.034154,26.4155294 C172.356335,27.8772941 174.176084,28.7345882 176.280863,28.7345882 C180.74415,28.7345882 184.348225,25.13 184.348225,20.6697647 C184.348225,16.2095294 180.850419,12.6774118 176.38878,12.6774118 C174.282352,12.6774118 172.356335,13.4268235 171.034154,14.8894118 C170.286154,15.7104706 169.749868,16.674 169.42859,17.78 L169.42859,23.5249412 L169.42859,23.5249412 Z" id="Shape" fill="#04ADAC"></path>
                </g>
                <g id="logo">
                    <path d="M7.6,77.8 L7.4,77.8 C7.4,78 7.6,78 7.6,77.8 L7.6,77.8 Z" id="Shape"></path>
                    <path d="M8.2,77.8 C8.2,77.8 8,77.8 8,78 C8,77.8 8,77.8 8.2,77.8 L8.2,77.8 Z" id="Shape"></path>
                    <path d="M11.4,76.2 C12,75.8 12.8,75.4 14,74.8 L11.4,76.2 L11.4,76.2 Z" id="Shape"></path>
                    <path d="M97,72.8 L97,34.2 C97,34.2 97.8,28 90.2,23.4 C82,18.4 56.8,4.4 56.8,4.4 C56.8,4.4 54,3 51,5 C51.4,4.8 52.6,4.8 56.4,7 C64.2,11.4 87,24.8 87,24.8 C87,24.8 94.2,28.8 94.2,36.8 L94.2,76 C94.2,76 94.2,77 93.2,78 C93.8,78 94.4,78 95,77.8 C94.8,77.8 97,76.2 97,72.8 L97,72.8 Z" id="Shape"></path>
                    <path d="M2.4,74.4 L2.4,27 L0,25.4 L0,72.8 C0,76.4 2.4,77.2 4.8,78 C2.2,76.6 2.4,74.4 2.4,74.4 L2.4,74.4 Z" id="Shape" fill="#2EA1A2"></path>
                    <path d="M7.6,77.8 L7.8,77.8 C8,77.8 8,77.8 8,77.6 L8.2,77.6 L8.2,30.6 L5.2,29 L5.2,75.2 C5.2,75.2 5.6,78.2 6.4,78.2 C6.6,78.2 6.8,78.2 7.2,78 C7.4,78 7.6,77.8 7.6,77.8 L7.6,77.8 Z" id="Shape" fill="#2EA1A2"></path>
                    <polygon id="Shape" fill="#2EA1A2" points="14 74.8 14 34 11.4 32.4 11.4 76.2"></polygon>
                    <path d="M19.6,37.6 L17.2,36 L17.2,73 L19,72 C19.2,71.8 19.6,71.8 19.8,71.6 L19.8,37.6 L19.6,37.6 Z" id="Shape" fill="#2EA1A2"></path>
                    <path d="M93,77.8 L93,77.8 C92.2,77.8 90.8,77.6 90.8,77.4 L90.8,77.4 C89.6,77 88.6,76.6 88.6,76.6 C88.6,76.6 63.6,61.8 56.6,58 C49.6,54.2 43.2,58 43.2,58 C43.2,58 29.4,66 19.8,71.4 L19.8,71.4 L19,72 C17.2,73 15.4,74 14,74.8 L14,74.8 L14,74.8 C12.8,75.4 12,76 11.4,76.2 C10.2,76.8 9.2,77.4 8.4,77.6 L8.4,77.6 C8.4,77.6 8.4,77.6 8.2,77.6 C8,77.6 8,77.6 8,77.8 L7.8,77.8 L7.6,77.8 C7.4,77.8 7,78 6.8,78 L6.8,78 C5.6,78.2 5.2,78 5,77.8 C9,80.8 12,79 12,79 C12,79 36.6,65 43,61.4 C49.8,57.6 52.8,59.6 55.8,60.8 C58.8,62.2 74.4,71 85.6,78 C91.6,81.8 95,77.6 95,77.6 C94.2,77.8 93.6,77.8 93,77.8 L93,77.8 Z" id="Shape" fill="url(#linearGradient-1)"></path>
                    <path d="M7.8,77.8 L7.6,77.8 L7.8,77.8 L7.8,77.8 Z" id="Shape" fill="#2EA1A2"></path>
                    <path d="M7.8,77.8 L7.6,77.8 L7.8,77.8 L7.8,77.8 Z" id="Shape" fill="url(#linearGradient-2)"></path>
                    <path d="M8.4,77.6 L8.4,77.6 C8.2,77.6 8.2,77.6 8.4,77.6 C8.2,77.6 8.4,77.6 8.4,77.6 L8.4,77.6 Z" id="Shape" fill="#2EA1A2"></path>
                    <path d="M8.4,77.6 L8.4,77.6 C8.2,77.6 8.2,77.6 8.4,77.6 C8.2,77.6 8.4,77.6 8.4,77.6 L8.4,77.6 Z" id="Shape" fill="url(#linearGradient-3)"></path>
                    <path d="M7.4,78 C7.2,78 6.8,78.2 6.6,78.2 L6.6,78.2 C6.8,78 7.2,78 7.4,78 L7.4,78 Z" id="Shape" fill="#2EA1A2"></path>
                    <path d="M7.4,78 C7.2,78 6.8,78.2 6.6,78.2 L6.6,78.2 C6.8,78 7.2,78 7.4,78 L7.4,78 Z" id="Shape" fill="url(#linearGradient-4)"></path>
                    <path d="M19.6,71.4 C19.4,71.6 19,71.8 18.8,71.8 L19.6,71.4 L19.6,71.4 L19.6,71.4 Z" id="Shape" fill="#2EA1A2"></path>
                    <path d="M19.6,71.4 C19.4,71.6 19,71.8 18.8,71.8 L19.6,71.4 L19.6,71.4 L19.6,71.4 Z" id="Shape" fill="url(#linearGradient-5)"></path>
                    <path d="M83.6,80 C83.6,80 63.6,68.2 56.4,64.4 C49,60.4 43,64.4 43,64.4 C43,64.4 22.2,76.8 16.8,79.4 C12.2,81.8 9.8,80.4 9.8,80.4 C12.8,84.2 17.8,82.2 17.8,82.2 C17.8,82.2 36.6,71.6 42.8,67.8 C49,64 55.6,67.2 55.6,67.2 C55.6,67.2 73,77 79.2,80.8 C87,85.4 89.8,80.4 89.8,80.4 C86.8,81.8 83.6,80 83.6,80 L83.6,80 Z" id="Shape" fill="url(#linearGradient-6)"></path>
                    <path d="M75.2,82.2 C75.2,82.2 62.8,75.2 55.8,71 C49.6,67.4 43.8,70.6 43.8,70.6 C43.8,70.6 29.2,79.4 23.8,82 C19.2,84.4 15.8,84.2 15.8,84.2 C19.6,88.2 25.6,84.6 25.6,84.6 C25.6,84.6 37.2,78 43.6,74.2 C50.4,70 55.6,74 55.6,74 C55.6,74 63.6,79 71,83.4 C80,89 83.4,84.4 83.4,84.4 C80,85.2 75.2,82.2 75.2,82.2 L75.2,82.2 Z" id="Shape" fill="url(#linearGradient-7)"></path>
                    <path d="M70.8,86.4 C70.8,86.4 61.6,81 54.6,77 C49.8,74.2 45.8,76.6 45.8,76.6 C45.8,76.6 34,83.6 28.6,86.4 C24,88.8 21.6,87.8 21.6,87.8 C25.4,91.8 29.8,89.2 29.8,89.2 C29.8,89.2 39.8,83.4 46.2,79.8 C50.2,77.6 53.8,80 53.8,80 C53.8,80 61,84.2 68.4,88.6 C74.2,92 77.8,87.6 77.8,87.6 C74.2,88.6 70.8,86.4 70.8,86.4 L70.8,86.4 Z" id="Shape" fill="url(#linearGradient-8)"></path>
                    <path d="M92.8,21.6 C92.8,21.6 70,8.2 62.2,3.8 C53.8,-1 50.6,5 50.6,5 C50.6,5 50.6,5 50.8,4.8 C54,2.8 56.6,4.2 56.6,4.2 C56.6,4.2 82,18.4 90.2,23.4 C97.6,28 97,34.2 97,34.2 L97,72.8 C97,76.4 94.8,77.8 94.8,77.8 C99.8,75.8 99.6,72.4 99.6,72.4 C99.6,72.4 100,43.6 100,33.6 C100,25.6 92.8,21.6 92.8,21.6 L92.8,21.6 Z" id="Shape" fill="url(#linearGradient-9)"></path>
                    <path d="M94,75.8 L94,36.6 C94,28.4 86.8,24.6 86.8,24.6 C86.8,24.6 64.2,11.2 56.4,6.8 C52.8,4.8 51.4,4.8 51,4.8 C51,4.8 50.8,4.8 50.8,5 C50.6,5.4 50.4,5.8 50,7 C51.8,8 53.2,8.8 53.2,8.8 C53.2,8.8 76,21.4 84.2,26.6 C91.6,31.2 91,37.4 91,37.4 C91,37.4 90.6,72.6 91,76 C91,76.8 90.8,77.6 90.8,77.8 C91.4,78 92.2,78.2 93,78.2 C94,76.8 94,75.8 94,75.8 L94,75.8 Z" id="Shape" fill="url(#linearGradient-10)"></path>
                    <path d="M93,77.8 L93,77.8 C92.2,77.8 91.4,77.6 90.8,77.4 L90.8,77.4 C90.8,77.6 92.2,77.8 93,77.8 L93,77.8 Z" id="Shape" fill="url(#linearGradient-11)"></path>
                    <path d="M93,77.8 L93,77.8 C92.2,77.8 91.4,77.6 90.8,77.4 L90.8,77.4 C90.8,77.6 92.2,77.8 93,77.8 L93,77.8 Z" id="Shape" fill="url(#linearGradient-12)"></path>
                    <path d="M52.8,15 C52.8,15 70.2,24.8 78.4,29.8 C85.8,34.4 85.2,40.6 85.2,40.6 C85.2,40.6 85,70.8 85,74.8 C86.4,75.6 88,76.6 88,76.6 L88,40 C88,31.8 80.8,28 80.8,28 C80.8,28 63,17.4 55.2,13 C50.2,10.2 49.6,10.2 49.6,10.2 L49.6,13.2 C51,13.8 52.8,15 52.8,15 L52.8,15 Z" id="Shape" fill="url(#linearGradient-13)"></path>
                    <path d="M79.4,44.2 C79.4,44.2 79.6,67.8 79.4,71.2 C80.8,72 82.4,73 82.4,73 L82.4,43.6 C82.4,35.4 75.2,31.6 75.2,31.6 C75.2,31.6 57.4,21 49.6,16.6 L49.6,20.2 C49.6,20.2 64.4,28.4 72.6,33.4 C80.2,38 79.4,44.2 79.4,44.2 L79.4,44.2 Z" id="Shape" fill="url(#linearGradient-14)"></path>
                </g>
                <text id="JavaScript-student" font-family="PTMono-Regular, PT Mono" font-size="20" font-weight="normal" fill="#F36C36">
                    <tspan x="177" y="65">JavaScript </tspan>
                    <tspan x="213" y="88">student</tspan>
                </text>
            </g>
        </g>
    </g>
</svg>